<svg xmlns="http://www.w3.org/2000/svg">
  <defs>
    <symbol id="brand" viewBox="0 0 512 512">
      <!-- <rect width="512" height="512" fill="#000000"/> -->
      <!-- <text
        style="font-family:Arvo;font-size:300rem;fill:#00d455"
        x="50%" y="50%"
        text-anchor="middle"
        dominant-baseline="middle">
        Th
      </text> -->
      <path
    id="path43138"
    d="m 288.5918,127.33984 v 25.19532 h 20.80078 v 177.53906 h -22.85156 v 25.19531 h 72.07031 v -25.19531 h -21.97266 v -84.53125 c 2.10563,-12.56723 21.25716,-16.87657 32.50195,-19.92188 17.45333,-2.99736 37.2712,8.01118 38.42383,26.98047 1.22616,25.77571 0.24198,51.65493 0.5586,77.47266 h -20.80078 v 25.19531 h 72.07031 v -25.19531 h -22.85156 v -25.53711 c -0.62304,-22.2882 1.65367,-44.8228 -2.14258,-66.86719 -3.58451,-20.22896 -21.7742,-35.40833 -42.09571,-36.4668 -20.44399,-3.23464 -40.73575,6.17285 -55.66406,19.00782 v -92.8711 z m -220.751956,5.85938 v 58.59375 h 30.029297 v -34.57031 h 50.683589 v 172.85156 h -20.36132 v 25.19531 h 71.92382 V 330.07422 H 177.26367 V 157.22266 h 58.59375 v 34.57031 h 30.0293 v -58.59375 z"
    fill="#00d455" />
      <rect width="512" height="512" fill="none" 
      stroke="#ffffff" stroke-width="10"
      rx="10rem" ry="10rem"/>
    </symbol>
  </defs>
</svg>
